<mxfile host="" modified="2021-01-27T09:54:17.068Z" agent="5.0 (Windows NT 6.2; Win64; x64) AppleWebKit/537.36 (KHTML, like Gecko) Chrome/84.0.4147.105 Safari/537.36" etag="uEOibetLyz8Rd2_nFIeV" version="13.7.9" type="embed"><diagram id="xcBSDvuHyAwJCCUkQaVQ" name="Page-1"><mxGraphModel dx="520" dy="636" grid="1" gridSize="10" guides="1" tooltips="1" connect="1" arrows="1" fold="1" page="1" pageScale="1" pageWidth="827" pageHeight="1169" background="#E6EBFF" math="0" shadow="0"><root><mxCell id="46V4MzfUgrr_Lab3t0OD-0"/><mxCell id="46V4MzfUgrr_Lab3t0OD-1" parent="46V4MzfUgrr_Lab3t0OD-0"/><mxCell id="LZJYc4YYHJ1YW3onMMaM-3" value="" style="edgeStyle=orthogonalEdgeStyle;rounded=0;orthogonalLoop=1;jettySize=auto;html=1;" parent="46V4MzfUgrr_Lab3t0OD-1" source="LZJYc4YYHJ1YW3onMMaM-1" target="LZJYc4YYHJ1YW3onMMaM-2" edge="1"><mxGeometry relative="1" as="geometry"/></mxCell><mxCell id="3Scls3nelL3lFTV3fOes-0" value="" style="edgeStyle=orthogonalEdgeStyle;rounded=0;orthogonalLoop=1;jettySize=auto;html=1;strokeColor=#000000;" parent="46V4MzfUgrr_Lab3t0OD-1" source="LZJYc4YYHJ1YW3onMMaM-1" target="LZJYc4YYHJ1YW3onMMaM-2" edge="1"><mxGeometry relative="1" as="geometry"/></mxCell><mxCell id="LZJYc4YYHJ1YW3onMMaM-1" value="&lt;font color=&quot;#000000&quot;&gt;Start&lt;/font&gt;" style="ellipse;whiteSpace=wrap;html=1;aspect=fixed;fillColor=#FFFFFF;strokeColor=#000000;" parent="46V4MzfUgrr_Lab3t0OD-1" vertex="1"><mxGeometry x="30" y="30" width="80" height="80" as="geometry"/></mxCell><mxCell id="LZJYc4YYHJ1YW3onMMaM-5" value="" style="edgeStyle=orthogonalEdgeStyle;rounded=0;orthogonalLoop=1;jettySize=auto;html=1;strokeColor=#000000;" parent="46V4MzfUgrr_Lab3t0OD-1" source="LZJYc4YYHJ1YW3onMMaM-2" target="LZJYc4YYHJ1YW3onMMaM-4" edge="1"><mxGeometry relative="1" as="geometry"/></mxCell><mxCell id="LZJYc4YYHJ1YW3onMMaM-2" value="&lt;font color=&quot;#000000&quot;&gt;Download covidData from external source&lt;/font&gt;" style="whiteSpace=wrap;html=1;fillColor=#FFFFFF;strokeColor=#000000;" parent="46V4MzfUgrr_Lab3t0OD-1" vertex="1"><mxGeometry x="170" y="40" width="120" height="60" as="geometry"/></mxCell><mxCell id="LZJYc4YYHJ1YW3onMMaM-12" value="" style="edgeStyle=orthogonalEdgeStyle;rounded=0;orthogonalLoop=1;jettySize=auto;html=1;strokeColor=#000000;" parent="46V4MzfUgrr_Lab3t0OD-1" source="LZJYc4YYHJ1YW3onMMaM-4" target="LZJYc4YYHJ1YW3onMMaM-11" edge="1"><mxGeometry relative="1" as="geometry"><Array as="points"><mxPoint x="230" y="270"/><mxPoint x="230" y="270"/></Array></mxGeometry></mxCell><mxCell id="3Scls3nelL3lFTV3fOes-3" value="&lt;span style=&quot;background-color: rgb(255 , 255 , 255)&quot;&gt;Yes&lt;/span&gt;" style="edgeLabel;html=1;align=center;verticalAlign=middle;resizable=0;points=[];fontColor=#000000;" parent="LZJYc4YYHJ1YW3onMMaM-12" vertex="1" connectable="0"><mxGeometry x="-0.2317" y="-1" relative="1" as="geometry"><mxPoint as="offset"/></mxGeometry></mxCell><mxCell id="LZJYc4YYHJ1YW3onMMaM-30" style="edgeStyle=orthogonalEdgeStyle;rounded=0;orthogonalLoop=1;jettySize=auto;html=1;exitX=1;exitY=0.5;exitDx=0;exitDy=0;entryX=0;entryY=0.5;entryDx=0;entryDy=0;strokeColor=#000000;" parent="46V4MzfUgrr_Lab3t0OD-1" source="LZJYc4YYHJ1YW3onMMaM-4" target="LZJYc4YYHJ1YW3onMMaM-28" edge="1"><mxGeometry relative="1" as="geometry"/></mxCell><mxCell id="LZJYc4YYHJ1YW3onMMaM-36" value="&lt;font color=&quot;#000000&quot; style=&quot;background-color: rgb(255 , 255 , 255)&quot;&gt;No&lt;/font&gt;" style="edgeLabel;html=1;align=center;verticalAlign=middle;resizable=0;points=[];" parent="LZJYc4YYHJ1YW3onMMaM-30" vertex="1" connectable="0"><mxGeometry x="-0.3077" y="1" relative="1" as="geometry"><mxPoint as="offset"/></mxGeometry></mxCell><mxCell id="LZJYc4YYHJ1YW3onMMaM-4" value="&lt;font color=&quot;#000000&quot;&gt;download success?&lt;/font&gt;" style="rhombus;whiteSpace=wrap;html=1;fillColor=#FFFFFF;strokeColor=#000000;" parent="46V4MzfUgrr_Lab3t0OD-1" vertex="1"><mxGeometry x="190" y="170" width="80" height="80" as="geometry"/></mxCell><mxCell id="LZJYc4YYHJ1YW3onMMaM-8" value="&lt;font color=&quot;#000000&quot;&gt;End&lt;/font&gt;" style="ellipse;whiteSpace=wrap;html=1;aspect=fixed;fillColor=#FFFFFF;strokeColor=#000000;" parent="46V4MzfUgrr_Lab3t0OD-1" vertex="1"><mxGeometry x="660" y="290" width="80" height="80" as="geometry"/></mxCell><mxCell id="LZJYc4YYHJ1YW3onMMaM-14" value="" style="edgeStyle=orthogonalEdgeStyle;rounded=0;orthogonalLoop=1;jettySize=auto;html=1;strokeColor=#000000;" parent="46V4MzfUgrr_Lab3t0OD-1" source="LZJYc4YYHJ1YW3onMMaM-11" target="LZJYc4YYHJ1YW3onMMaM-13" edge="1"><mxGeometry relative="1" as="geometry"/></mxCell><mxCell id="LZJYc4YYHJ1YW3onMMaM-11" value="&lt;font color=&quot;#000000&quot;&gt;Convert incoming data to domain model&lt;/font&gt;" style="whiteSpace=wrap;html=1;fillColor=#FFFFFF;strokeColor=#000000;" parent="46V4MzfUgrr_Lab3t0OD-1" vertex="1"><mxGeometry x="170" y="310" width="120" height="60" as="geometry"/></mxCell><mxCell id="LZJYc4YYHJ1YW3onMMaM-17" style="edgeStyle=orthogonalEdgeStyle;rounded=0;orthogonalLoop=1;jettySize=auto;html=1;exitX=0.5;exitY=1;exitDx=0;exitDy=0;entryX=1;entryY=0.5;entryDx=0;entryDy=0;strokeColor=#000000;" parent="46V4MzfUgrr_Lab3t0OD-1" source="LZJYc4YYHJ1YW3onMMaM-13" target="LZJYc4YYHJ1YW3onMMaM-15" edge="1"><mxGeometry relative="1" as="geometry"/></mxCell><mxCell id="LZJYc4YYHJ1YW3onMMaM-40" value="&lt;font color=&quot;#000000&quot; style=&quot;background-color: rgb(255 , 255 , 255)&quot;&gt;Uniform Broadcast&lt;/font&gt;" style="edgeLabel;html=1;align=center;verticalAlign=middle;resizable=0;points=[];labelBackgroundColor=none;" parent="LZJYc4YYHJ1YW3onMMaM-17" vertex="1" connectable="0"><mxGeometry x="-0.1238" relative="1" as="geometry"><mxPoint as="offset"/></mxGeometry></mxCell><mxCell id="LZJYc4YYHJ1YW3onMMaM-13" value="&lt;font color=&quot;#000000&quot;&gt;Group by country&lt;/font&gt;" style="whiteSpace=wrap;html=1;fillColor=#FFFFFF;strokeColor=#000000;" parent="46V4MzfUgrr_Lab3t0OD-1" vertex="1"><mxGeometry x="170" y="450" width="120" height="60" as="geometry"/></mxCell><mxCell id="LZJYc4YYHJ1YW3onMMaM-20" style="edgeStyle=orthogonalEdgeStyle;rounded=0;orthogonalLoop=1;jettySize=auto;html=1;exitX=0;exitY=0.25;exitDx=0;exitDy=0;strokeColor=#000000;" parent="46V4MzfUgrr_Lab3t0OD-1" source="LZJYc4YYHJ1YW3onMMaM-15" target="LZJYc4YYHJ1YW3onMMaM-18" edge="1"><mxGeometry relative="1" as="geometry"/></mxCell><mxCell id="LZJYc4YYHJ1YW3onMMaM-21" style="edgeStyle=orthogonalEdgeStyle;rounded=0;orthogonalLoop=1;jettySize=auto;html=1;exitX=0;exitY=0.75;exitDx=0;exitDy=0;strokeColor=#000000;" parent="46V4MzfUgrr_Lab3t0OD-1" source="LZJYc4YYHJ1YW3onMMaM-15" target="LZJYc4YYHJ1YW3onMMaM-19" edge="1"><mxGeometry relative="1" as="geometry"/></mxCell><mxCell id="LZJYc4YYHJ1YW3onMMaM-15" value="&lt;font color=&quot;#000000&quot;&gt;broadcast&lt;/font&gt;" style="triangle;whiteSpace=wrap;html=1;rotation=-90;fillColor=#FFFFFF;strokeColor=#000000;" parent="46V4MzfUgrr_Lab3t0OD-1" vertex="1"><mxGeometry x="200" y="580" width="60" height="80" as="geometry"/></mxCell><mxCell id="LZJYc4YYHJ1YW3onMMaM-23" style="edgeStyle=orthogonalEdgeStyle;rounded=0;orthogonalLoop=1;jettySize=auto;html=1;exitX=0.5;exitY=1;exitDx=0;exitDy=0;entryX=0;entryY=0.75;entryDx=0;entryDy=0;strokeColor=#000000;" parent="46V4MzfUgrr_Lab3t0OD-1" source="LZJYc4YYHJ1YW3onMMaM-18" target="LZJYc4YYHJ1YW3onMMaM-22" edge="1"><mxGeometry relative="1" as="geometry"/></mxCell><mxCell id="LZJYc4YYHJ1YW3onMMaM-18" value="&lt;font color=&quot;#000000&quot;&gt;Average cases&lt;/font&gt;" style="rounded=0;whiteSpace=wrap;html=1;fillColor=#FFFFFF;strokeColor=#000000;" parent="46V4MzfUgrr_Lab3t0OD-1" vertex="1"><mxGeometry x="110" y="690" width="120" height="60" as="geometry"/></mxCell><mxCell id="LZJYc4YYHJ1YW3onMMaM-24" style="edgeStyle=orthogonalEdgeStyle;rounded=0;orthogonalLoop=1;jettySize=auto;html=1;exitX=0.5;exitY=1;exitDx=0;exitDy=0;entryX=0;entryY=0.25;entryDx=0;entryDy=0;strokeColor=#000000;" parent="46V4MzfUgrr_Lab3t0OD-1" source="LZJYc4YYHJ1YW3onMMaM-19" target="LZJYc4YYHJ1YW3onMMaM-22" edge="1"><mxGeometry relative="1" as="geometry"/></mxCell><mxCell id="LZJYc4YYHJ1YW3onMMaM-19" value="&lt;font color=&quot;#000000&quot;&gt;Average deaths&lt;/font&gt;" style="rounded=0;whiteSpace=wrap;html=1;fillColor=#FFFFFF;strokeColor=#000000;" parent="46V4MzfUgrr_Lab3t0OD-1" vertex="1"><mxGeometry x="240" y="690" width="120" height="60" as="geometry"/></mxCell><mxCell id="LZJYc4YYHJ1YW3onMMaM-22" value="&lt;font color=&quot;#000000&quot;&gt;Merge&lt;/font&gt;" style="triangle;whiteSpace=wrap;html=1;rotation=90;fillColor=#FFFFFF;strokeColor=#000000;" parent="46V4MzfUgrr_Lab3t0OD-1" vertex="1"><mxGeometry x="200" y="800" width="60" height="80" as="geometry"/></mxCell><mxCell id="LZJYc4YYHJ1YW3onMMaM-27" style="edgeStyle=orthogonalEdgeStyle;rounded=0;orthogonalLoop=1;jettySize=auto;html=1;exitX=1;exitY=0.5;exitDx=0;exitDy=0;entryX=0.5;entryY=1;entryDx=0;entryDy=0;strokeColor=#000000;" parent="46V4MzfUgrr_Lab3t0OD-1" source="LZJYc4YYHJ1YW3onMMaM-22" target="LZJYc4YYHJ1YW3onMMaM-28" edge="1"><mxGeometry relative="1" as="geometry"><mxPoint x="290" y="930" as="sourcePoint"/></mxGeometry></mxCell><mxCell id="LZJYc4YYHJ1YW3onMMaM-41" value="&lt;span style=&quot;background-color: rgb(255 , 255 , 255)&quot;&gt;Merged Data&lt;/span&gt;" style="edgeLabel;html=1;align=center;verticalAlign=middle;resizable=0;points=[];labelBackgroundColor=none;fontColor=#000000;" parent="LZJYc4YYHJ1YW3onMMaM-27" vertex="1" connectable="0"><mxGeometry x="-0.7215" y="-2" relative="1" as="geometry"><mxPoint as="offset"/></mxGeometry></mxCell><mxCell id="LZJYc4YYHJ1YW3onMMaM-33" style="edgeStyle=orthogonalEdgeStyle;rounded=0;orthogonalLoop=1;jettySize=auto;html=1;exitX=1;exitY=0.5;exitDx=0;exitDy=0;entryX=0;entryY=0.5;entryDx=0;entryDy=0;strokeColor=#000000;" parent="46V4MzfUgrr_Lab3t0OD-1" source="LZJYc4YYHJ1YW3onMMaM-28" target="LZJYc4YYHJ1YW3onMMaM-32" edge="1"><mxGeometry relative="1" as="geometry"/></mxCell><mxCell id="LZJYc4YYHJ1YW3onMMaM-28" value="&lt;font color=&quot;#000000&quot;&gt;Display&lt;/font&gt;" style="rounded=0;whiteSpace=wrap;html=1;fillColor=#FFFFFF;strokeColor=#000000;" parent="46V4MzfUgrr_Lab3t0OD-1" vertex="1"><mxGeometry x="400" y="180" width="120" height="60" as="geometry"/></mxCell><mxCell id="LZJYc4YYHJ1YW3onMMaM-35" style="edgeStyle=orthogonalEdgeStyle;rounded=0;orthogonalLoop=1;jettySize=auto;html=1;exitX=0.5;exitY=1;exitDx=0;exitDy=0;strokeColor=#000000;" parent="46V4MzfUgrr_Lab3t0OD-1" source="LZJYc4YYHJ1YW3onMMaM-32" target="LZJYc4YYHJ1YW3onMMaM-8" edge="1"><mxGeometry relative="1" as="geometry"/></mxCell><mxCell id="LZJYc4YYHJ1YW3onMMaM-32" value="&lt;font color=&quot;#000000&quot;&gt;Close Connections&lt;/font&gt;" style="rounded=0;whiteSpace=wrap;html=1;fillColor=#FFFFFF;strokeColor=#000000;" parent="46V4MzfUgrr_Lab3t0OD-1" vertex="1"><mxGeometry x="640" y="180" width="120" height="60" as="geometry"/></mxCell></root></mxGraphModel></diagram></mxfile>